<svg xmlns="http://www.w3.org/2000/svg" width="600" height="120" viewBox="0 0 600 120" fill="none">
  <g aria-label="exday icon">
    <rect x="16" y="16" width="88" height="88" rx="22" fill="#FFFFFF"/>
    <path d="M16 32H104" stroke="#14B8A6" stroke-width="16" stroke-linecap="round"/>
    <line x1="38" y1="46" x2="82" y2="86" stroke="#0F172A" stroke-width="9" stroke-linecap="round"/>
    <line x1="82" y1="46" x2="38" y2="86" stroke="#0F172A" stroke-width="9" stroke-linecap="round"/>
    <circle cx="40" cy="24" r="4" fill="#FFFFFF"/>
    <circle cx="80" cy="24" r="4" fill="#FFFFFF"/>
  </g>
  <path d="M172.255 59.859 L172.255 63.437 L142.836 63.437 Q143.286 67.869 146.031 70.086 Q148.776 72.302 153.692 72.302 Q157.664 72.302 161.826 71.121 Q166.0 69.939 170.399 67.554 L170.399 77.252 Q165.932 78.939 161.466 79.806 Q157.0 80.672 152.534 80.672 Q141.846 80.672 135.918 75.238 Q130.0 69.804 130.0 59.994 Q130.0 50.364 135.816 44.852 Q141.632 39.328 151.836 39.328 Q161.118 39.328 166.686 44.919 Q172.255 50.499 172.255 59.859 Z M159.318 55.674 Q159.318 52.086 157.225 49.892 Q155.132 47.687 151.758 47.687 Q148.101 47.687 145.818 49.746 Q143.534 51.804 142.971 55.674 L159.318 55.674 Z" fill="#FFFFFF"/>
  <path d="M188.906 59.539 L174.698 40.312 L188.029 40.312 L196.072 51.979 L204.229 40.312 L217.56 40.312 L203.351 59.471 L218.258 79.688 L204.938 79.688 L196.072 67.245 L187.32 79.688 L174.0 79.688 L188.906 59.539 Z" fill="#14B8A6"/>
  <path d="M247.599 45.971 L247.599 24.877 L260.255 24.877 L260.255 79.586 L247.599 79.586 L247.599 73.894 Q245.0 77.37 241.861 78.99 Q238.734 80.61 234.628 80.61 Q227.349 80.61 222.669 74.827 Q218.0 69.034 218.0 59.932 Q218.0 50.831 222.669 45.049 Q227.349 39.266 234.628 39.266 Q238.7 39.266 241.85 40.897 Q245.0 42.529 247.599 45.971 Z M239.296 71.464 Q243.346 71.464 245.472 68.516 Q247.599 65.557 247.599 59.932 Q247.599 54.307 245.472 51.36 Q243.346 48.401 239.296 48.401 Q235.291 48.401 233.165 51.36 Q231.039 54.307 231.039 59.932 Q231.039 65.557 233.165 68.516 Q235.291 71.464 239.296 71.464 Z M289.992 61.867 Q286.054 61.867 284.063 63.206 Q282.083 64.534 282.083 67.144 Q282.083 69.529 283.68 70.89 Q285.289 72.24 288.135 72.24 Q291.679 72.24 294.109 69.697 Q296.539 67.144 296.539 63.307 L296.539 61.867 L289.992 61.867 Z M309.229 57.12 L309.229 79.586 L296.539 79.586 L296.539 73.747 Q294.008 77.336 290.835 78.979 Q287.674 80.61 283.14 80.61 Q277.02 80.61 273.207 77.044 Q269.393 73.466 269.393 67.774 Q269.393 60.844 274.152 57.615 Q278.922 54.375 289.114 54.375 L296.539 54.375 L296.539 53.396 Q296.539 50.404 294.177 49.02 Q291.825 47.625 286.83 47.625 Q282.792 47.625 279.304 48.435 Q275.828 49.245 272.835 50.865 L272.835 41.269 Q276.885 40.279 280.958 39.772 Q285.042 39.266 289.114 39.266 Q299.768 39.266 304.493 43.462 Q309.229 47.659 309.229 57.12 Z M313.512 40.211 L326.101 40.211 L336.688 66.93 L345.688 40.211 L358.265 40.211 L341.705 83.31 Q339.219 89.891 335.889 92.501 Q332.57 95.122 327.125 95.122 L319.846 95.122 L319.846 86.865 L323.784 86.865 Q326.979 86.865 328.43 85.841 Q329.892 84.829 330.702 82.185 L331.062 81.094 L313.512 40.211 Z" fill="#FFFFFF"/>
</svg>