<svg xmlns="http://www.w3.org/2000/svg" width="1200" height="630" viewBox="0 0 1200 630" font-family="system-ui, -apple-system, 'Segoe UI', sans-serif">
  <defs>
    <linearGradient id="bg" x1="0%" y1="0%" x2="100%" y2="100%">
      <stop offset="0%" stop-color="#0f172a"/>
      <stop offset="55%" stop-color="#1e293b"/>
      <stop offset="100%" stop-color="#14532d"/>
    </linearGradient>
    <linearGradient id="cardGrad" x1="0%" y1="0%" x2="0%" y2="100%">
      <stop offset="0%" stop-color="#1e293b"/>
      <stop offset="100%" stop-color="#162032"/>
    </linearGradient>
  </defs>

  <!-- Background -->
  <rect width="1200" height="630" fill="url(#bg)"/>
  <line x1="0" y1="210" x2="1200" y2="210" stroke="#ffffff" stroke-opacity="0.03" stroke-width="1"/>
  <line x1="0" y1="420" x2="1200" y2="420" stroke="#ffffff" stroke-opacity="0.03" stroke-width="1"/>
  <line x1="600" y1="0" x2="600" y2="630" stroke="#ffffff" stroke-opacity="0.03" stroke-width="1"/>

  <!-- Left card -->
  <rect x="40" y="90" width="700" height="500" rx="16" fill="url(#cardGrad)" opacity="0.85"/>
  <rect x="40" y="90" width="700" height="4" rx="2" fill="#22c55e"/>

  <!-- Brand -->
  <text x="72" y="142" font-size="18" font-weight="700" fill="#22c55e" letter-spacing="0.5">exday.no</text>
  <text x="72" y="162" font-size="12" fill="#64748b" letter-spacing="1">ARTIKKEL</text>

  <!-- Headline -->
  <text x="72" y="218" font-size="35" font-weight="800" fill="#f1f5f9">Slik bygger du en</text>
  <text x="72" y="262" font-size="35" font-weight="800" fill="#22c55e">utbytteportefølje</text>
  <text x="72" y="304" font-size="22" font-weight="600" fill="#94a3b8">Sektorvekting og rebalansering</text>

  <line x1="72" y1="326" x2="360" y2="326" stroke="#22c55e" stroke-width="2" stroke-opacity="0.4"/>

  <!-- Bullets -->
  <circle cx="84" cy="358" r="4" fill="#22c55e"/>
  <text x="100" y="363" font-size="15" fill="#cbd5e1">Hvilke sektorer du bør ha i porteføljen</text>
  <circle cx="84" cy="390" r="4" fill="#22c55e"/>
  <text x="100" y="395" font-size="15" fill="#cbd5e1">Slik setter du målvekter per sektor</text>
  <circle cx="84" cy="422" r="4" fill="#22c55e"/>
  <text x="100" y="427" font-size="15" fill="#cbd5e1">Når og hvordan du rebalanserer</text>
  <circle cx="84" cy="454" r="4" fill="#22c55e"/>
  <text x="100" y="459" font-size="15" fill="#cbd5e1">Gratis rebalanseringsverktøy på exday.no</text>

  <!-- URL -->
  <text x="72" y="555" font-size="13" fill="#475569">exday.no/artikler/utbytteportefolje-sektorvekting/</text>

  <!-- Right card -->
  <rect x="760" y="90" width="400" height="500" rx="16" fill="url(#cardGrad)" opacity="0.75"/>
  <text x="960" y="138" font-size="12" font-weight="600" fill="#64748b" text-anchor="middle" letter-spacing="1">EKSEMPEL PORTEFØLJE</text>

  <!-- Donut slices -->
  <path d="M 963.66 175.05 A 140 140 0 0 1 1091.97 268.27 L 1035.41 288.30 A 80 80 0 0 0 962.09 235.03 Z" fill="#22c55e"/><path d="M 1094.23 275.24 A 140 140 0 0 1 1058.48 414.51 L 1016.27 371.86 A 80 80 0 0 0 1036.71 292.28 Z" fill="#3b82f6"/><path d="M 1053.13 419.53 A 140 140 0 0 1 937.38 453.16 L 947.07 393.95 A 80 80 0 0 0 1013.22 374.73 Z" fill="#06b6d4"/><path d="M 930.18 451.79 A 140 140 0 0 1 834.93 377.90 L 888.53 350.95 A 80 80 0 0 0 942.96 393.16 Z" fill="#f59e0b"/><path d="M 831.81 371.27 A 140 140 0 0 1 825.77 275.24 L 883.29 292.28 A 80 80 0 0 0 886.75 347.16 Z" fill="#a855f7"/><path d="M 828.03 268.27 A 140 140 0 0 1 874.77 203.93 L 911.30 251.53 A 80 80 0 0 0 884.59 288.30 Z" fill="#f97316"/><path d="M 880.70 199.62 A 140 140 0 0 1 956.34 175.05 L 957.91 235.03 A 80 80 0 0 0 914.69 249.07 Z" fill="#64748b"/>

  <!-- Donut hole -->
  <circle cx="960" cy="315" r="78" fill="#1a2535"/>

  <!-- Center text -->
  <text x="960" y="307" font-size="28" font-weight="800" fill="#f1f5f9" text-anchor="middle">191</text>
  <text x="960" y="329" font-size="11" fill="#64748b" text-anchor="middle">AKSJER</text>

  <!-- Legend -->
  <rect x="780" y="481" width="11" height="11" rx="2" fill="#22c55e"/><text x="796" y="490" font-size="13" fill="#94a3b8">Energi 20%</text><rect x="980" y="481" width="11" height="11" rx="2" fill="#3b82f6"/><text x="996" y="490" font-size="13" fill="#94a3b8">Finans 18%</text><rect x="780" y="503" width="11" height="11" rx="2" fill="#06b6d4"/><text x="796" y="512" font-size="13" fill="#94a3b8">Havbruk 15%</text><rect x="980" y="503" width="11" height="11" rx="2" fill="#f59e0b"/><text x="996" y="512" font-size="13" fill="#94a3b8">Eiendom 15%</text><rect x="780" y="525" width="11" height="11" rx="2" fill="#a855f7"/><text x="796" y="534" font-size="13" fill="#94a3b8">Industri 12%</text><rect x="980" y="525" width="11" height="11" rx="2" fill="#f97316"/><text x="996" y="534" font-size="13" fill="#94a3b8">Shipping 10%</text><rect x="780" y="547" width="11" height="11" rx="2" fill="#64748b"/><text x="796" y="556" font-size="13" fill="#94a3b8">Andre 10%</text>

  <!-- Bottom tagline -->
  <text x="600" y="614" font-size="13" fill="#334155" text-anchor="middle">Gratis verktøy for norske utbytteinvestorer · exday.no</text>
</svg>