<svg xmlns="http://www.w3.org/2000/svg" width="1200" height="630" viewBox="0 0 1200 630" font-family="system-ui, -apple-system, 'Segoe UI', sans-serif">
  <defs>
    <linearGradient id="bg" x1="0%" y1="0%" x2="100%" y2="100%">
      <stop offset="0%" style="stop-color:#0f172a"/>
      <stop offset="55%" style="stop-color:#1e293b"/>
      <stop offset="100%" style="stop-color:#14532d"/>
    </linearGradient>
    <linearGradient id="cardGrad" x1="0%" y1="0%" x2="0%" y2="100%">
      <stop offset="0%" style="stop-color:#1e293b;stop-opacity:1"/>
      <stop offset="100%" style="stop-color:#162032;stop-opacity:1"/>
    </linearGradient>
    <linearGradient id="rightGrad" x1="0%" y1="0%" x2="0%" y2="100%">
      <stop offset="0%" style="stop-color:#162032;stop-opacity:1"/>
      <stop offset="100%" style="stop-color:#0f1f2e;stop-opacity:1"/>
    </linearGradient>
  </defs>

  <!-- Background -->
  <rect width="1200" height="630" fill="url(#bg)"/>
  <line x1="0" y1="200" x2="1200" y2="200" stroke="#ffffff" stroke-opacity="0.03" stroke-width="1"/>
  <line x1="0" y1="400" x2="1200" y2="400" stroke="#ffffff" stroke-opacity="0.03" stroke-width="1"/>
  <line x1="600" y1="0" x2="600" y2="630" stroke="#ffffff" stroke-opacity="0.03" stroke-width="1"/>

  <!-- HEADER -->
  <rect x="40" y="24" width="48" height="48" rx="12" fill="#0f172a" stroke="#22c55e" stroke-width="2"/>
  <rect x="40" y="24" width="48" height="10" rx="6" fill="#14b8a6"/>
  <rect x="40" y="29" width="48" height="5" fill="#14b8a6"/>
  <line x1="51" y1="40" x2="77" y2="66" stroke="#ffffff" stroke-width="5" stroke-linecap="round"/>
  <line x1="77" y1="40" x2="51" y2="66" stroke="#ffffff" stroke-width="5" stroke-linecap="round"/>
  <text x="100" y="53" font-size="30" font-weight="700" fill="#f1f5f9" letter-spacing="-0.5">e<tspan fill="#22c55e">x</tspan>day<tspan fill="#4ade80" font-weight="600">.no</tspan></text>
  <circle cx="278" cy="46" r="3" fill="#475569"/>
  <text x="294" y="55" font-size="22" font-weight="500" fill="#94a3b8">Uke 22  •  19. – 28. mai 2026</text>
  <rect x="40" y="90" width="1120" height="2" rx="1" fill="#22c55e" opacity="0.4"/>

  <!-- ═══ LEFT CARD: Ex-dato + Rapporter ═══ -->
  <rect x="40" y="110" width="680" height="470" rx="12" fill="url(#cardGrad)" stroke="#1f2937" stroke-width="1"/>

  <!-- Card header bg -->
  <rect x="40" y="110" width="680" height="52" rx="0" fill="#15803d" opacity="0.25"/>
  <rect x="40" y="110" width="680" height="12" rx="6" fill="#15803d" opacity="0.25"/>
  <rect x="40" y="122" width="680" height="40" fill="#15803d" opacity="0.25"/>

  <!-- Calendar icon -->
  <rect x="60" y="122" width="22" height="22" rx="4" fill="none" stroke="#86efac" stroke-width="2"/>
  <line x1="66" y1="120" x2="66" y2="126" stroke="#86efac" stroke-width="2" stroke-linecap="round"/>
  <line x1="76" y1="120" x2="76" y2="126" stroke="#86efac" stroke-width="2" stroke-linecap="round"/>
  <line x1="60" y1="130" x2="82" y2="130" stroke="#86efac" stroke-width="1.5"/>

  <text x="92" y="138" font-size="17" font-weight="700" fill="#86efac" letter-spacing="0.3">EX-DATO DENNE UKE</text>
  <text x="92" y="155" font-size="13" fill="#6ee7b7" opacity="0.8">4 aksjer gikk eks-utbytte uke 22</text>

  <!-- Column headers -->
  <text x="62" y="186" font-size="12" fill="#64748b" font-weight="600" letter-spacing="0.5">AKSJE</text>
  <text x="200" y="186" font-size="12" fill="#64748b" font-weight="600" letter-spacing="0.5">SELSKAP</text>
  <text x="560" y="186" font-size="12" fill="#64748b" font-weight="600" letter-spacing="0.5" text-anchor="end">UTBYTTE</text>
  <text x="700" y="186" font-size="12" fill="#64748b" font-weight="600" letter-spacing="0.5" text-anchor="end">EX-DATO</text>
  <line x1="56" y1="191" x2="704" y2="191" stroke="#1f2937" stroke-width="1"/>

  <!-- Row 1: GOGL -->
  <rect x="44" y="195" width="672" height="44" rx="4" fill="#ffffff" fill-opacity="0.025"/>
  <text x="62" y="222" font-size="16" font-weight="700" fill="#f1f5f9">GOGL</text>
  <text x="200" y="222" font-size="14" fill="#cbd5e1">Golden Ocean Group</text>
  <text x="560" y="222" font-size="16" font-weight="600" fill="#f1f5f9" text-anchor="end">10,80 kr</text>
  <rect x="608" y="208" width="88" height="22" rx="11" fill="#15803d"/>
  <text x="652" y="223" font-size="13" font-weight="700" fill="#86efac" text-anchor="middle">22. mai</text>

  <!-- Row 2: COOL -->
  <text x="62" y="261" font-size="16" font-weight="700" fill="#f1f5f9">COOL</text>
  <text x="200" y="261" font-size="14" fill="#94a3b8">Cool Company Ltd</text>
  <text x="560" y="261" font-size="16" font-weight="600" fill="#f1f5f9" text-anchor="end">8,00 kr</text>
  <rect x="608" y="247" width="88" height="22" rx="11" fill="#166534"/>
  <text x="652" y="262" font-size="13" font-weight="700" fill="#86efac" text-anchor="middle">25. mai</text>

  <!-- Row 3: ODLD -->
  <rect x="44" y="273" width="672" height="44" rx="4" fill="#ffffff" fill-opacity="0.025"/>
  <text x="62" y="300" font-size="16" font-weight="700" fill="#f1f5f9">ODLD</text>
  <text x="200" y="300" font-size="14" fill="#cbd5e1">Odfjell Drilling Ltd</text>
  <text x="560" y="300" font-size="16" font-weight="600" fill="#f1f5f9" text-anchor="end">8,92 kr</text>
  <rect x="608" y="286" width="88" height="22" rx="11" fill="#166534"/>
  <text x="652" y="301" font-size="13" font-weight="700" fill="#86efac" text-anchor="middle">27. mai</text>

  <!-- Row 4: DOF -->
  <text x="62" y="339" font-size="16" font-weight="700" fill="#f1f5f9">DOF</text>
  <text x="200" y="339" font-size="14" fill="#94a3b8">DOF Group ASA</text>
  <text x="560" y="339" font-size="16" font-weight="600" fill="#f1f5f9" text-anchor="end">0,74 kr</text>
  <rect x="608" y="325" width="88" height="22" rx="11" fill="#1a4731"/>
  <text x="652" y="340" font-size="13" font-weight="600" fill="#86efac" text-anchor="middle">28. mai</text>

  <!-- Separator -->
  <line x1="56" y1="358" x2="704" y2="358" stroke="#1f2937" stroke-width="1" stroke-dasharray="4 4"/>

  <!-- Rapporter seksjon -->
  <text x="62" y="382" font-size="13" font-weight="700" fill="#94a3b8" letter-spacing="0.4">📊  RAPPORTUKE — UTVALGTE SELSKAPER</text>

  <!-- 2-kolonne grid, 4 rader -->
  <!-- Venstre kolonne -->
  <text x="62" y="408" font-size="14" font-weight="700" fill="#f1f5f9">ORK</text>
  <text x="108" y="408" font-size="13" fill="#64748b">Orkla — 10,00 kr</text>

  <text x="62" y="430" font-size="14" font-weight="700" fill="#f1f5f9">SALM</text>
  <text x="112" y="430" font-size="13" fill="#64748b">SalMar — 22,00 kr</text>

  <text x="62" y="452" font-size="14" font-weight="700" fill="#f1f5f9">FRO</text>
  <text x="100" y="452" font-size="13" fill="#64748b">Frontline — 8,61 kr</text>

  <text x="62" y="474" font-size="14" font-weight="700" fill="#f1f5f9">HAFNI</text>
  <text x="116" y="474" font-size="13" fill="#64748b">Hafnia — 3,69 kr</text>

  <!-- Høyre kolonne -->
  <text x="390" y="408" font-size="14" font-weight="700" fill="#f1f5f9">BAKKA</text>
  <text x="442" y="408" font-size="13" fill="#64748b">Bakkafrost — 13,37 kr</text>

  <text x="390" y="430" font-size="14" font-weight="700" fill="#f1f5f9">WWIB</text>
  <text x="440" y="430" font-size="13" fill="#64748b">Wilhelmsen — 12,00 kr</text>

  <text x="390" y="452" font-size="14" font-weight="700" fill="#f1f5f9">MPCC</text>
  <text x="440" y="452" font-size="13" fill="#64748b">MPC Container — 1,92 kr</text>

  <text x="390" y="474" font-size="14" font-weight="700" fill="#f1f5f9">HSHP</text>
  <text x="440" y="474" font-size="13" fill="#64748b">Himalaya Ship. — 5,28 kr</text>

  <text x="380" y="498" font-size="12" fill="#475569" text-anchor="middle">og 20+ andre selskaper la frem kvartalstall denne uken</text>

  <!-- Tip + CTA -->
  <text x="380" y="520" font-size="11" fill="#334155" text-anchor="middle">Husk: du må eie aksjen DAGEN FØR ex-dato for å motta utbytte</text>
  <rect x="44" y="530" width="672" height="34" rx="6" fill="#15803d" fill-opacity="0.18"/>
  <text x="380" y="551" font-size="13" font-weight="600" fill="#4ade80" text-anchor="middle">↗ Se alle ex-datoer og utbyttekalender på exday.no</text>

  <!-- ═══ HØYRE ØVRE: Neste uke ═══ -->
  <rect x="740" y="110" width="420" height="212" rx="12" fill="url(#rightGrad)" stroke="#1f2937" stroke-width="1"/>

  <!-- Header -->
  <rect x="740" y="110" width="420" height="52" rx="0" fill="#0e4429" opacity="0.5"/>
  <rect x="740" y="110" width="420" height="12" rx="6" fill="#0e4429" opacity="0.5"/>
  <rect x="740" y="122" width="420" height="40" fill="#0e4429" opacity="0.5"/>
  <text x="760" y="140" font-size="18" fill="#4ade80">⟶</text>
  <text x="788" y="140" font-size="16" font-weight="700" fill="#4ade80" letter-spacing="0.3">NESTE UKE</text>
  <text x="788" y="156" font-size="12" fill="#6ee7b7" opacity="0.8">1. – 5. juni 2026</text>

  <!-- WILS ex-dato highlight -->
  <rect x="752" y="174" width="396" height="56" rx="8" fill="#22c55e" fill-opacity="0.12" stroke="#22c55e" stroke-opacity="0.3" stroke-width="1"/>
  <text x="772" y="197" font-size="16" font-weight="800" fill="#f1f5f9">WILS</text>
  <text x="772" y="215" font-size="12" fill="#94a3b8">Wilson ASA — ex-dato 1. juni</text>
  <text x="1060" y="197" font-size="17" font-weight="700" fill="#f1f5f9" text-anchor="end">1,60 kr</text>
  <text x="1060" y="215" font-size="11" fill="#6ee7b7" text-anchor="end">per aksje</text>

  <!-- BWLPG rapport -->
  <text x="772" y="252" font-size="14" font-weight="600" fill="#4ade80">📊</text>
  <text x="796" y="252" font-size="14" font-weight="700" fill="#94a3b8">BWLPG</text>
  <text x="856" y="252" font-size="13" fill="#475569">BW LPG — rapport 2. juni</text>

  <text x="772" y="276" font-size="12" fill="#334155" font-style="italic">Ingen andre kjente ex-datoer neste uke</text>

  <!-- ═══ HØYRE NEDRE: Ukens tall ═══ -->
  <rect x="740" y="332" width="420" height="248" rx="12" fill="url(#rightGrad)" stroke="#1f2937" stroke-width="1"/>

  <!-- Header -->
  <rect x="740" y="332" width="420" height="44" rx="0" fill="#1e293b" opacity="0.8"/>
  <rect x="740" y="332" width="420" height="12" rx="6" fill="#1e293b" opacity="0.8"/>
  <rect x="740" y="344" width="420" height="32" fill="#1e293b" opacity="0.8"/>
  <text x="760" y="362" font-size="16" font-weight="700" fill="#f1f5f9">📈  UKENS TALL</text>

  <!-- Stats -->
  <text x="760" y="396" font-size="13" fill="#64748b">Aksjer med ex-dato denne uken:</text>
  <text x="1140" y="396" font-size="16" font-weight="700" fill="#4ade80" text-anchor="end">4</text>

  <line x1="752" y1="406" x2="1148" y2="406" stroke="#1f2937" stroke-width="1"/>

  <text x="760" y="426" font-size="13" fill="#64748b">Størst utbytte per aksje (ex-dato):</text>
  <text x="1140" y="426" font-size="15" font-weight="700" fill="#f1f5f9" text-anchor="end">GOGL 10,80 kr</text>

  <text x="760" y="448" font-size="13" fill="#64748b">Rapporter lagt frem uke 22:</text>
  <text x="1140" y="448" font-size="16" font-weight="700" fill="#f1f5f9" text-anchor="end">30+</text>

  <text x="760" y="470" font-size="13" fill="#64748b">Høyest kjent utbytte blant rapportørene:</text>
  <text x="1140" y="470" font-size="14" font-weight="700" fill="#4ade80" text-anchor="end">SALM 22,00 kr</text>

  <line x1="752" y1="482" x2="1148" y2="482" stroke="#1f2937" stroke-width="1"/>

  <!-- CTA box -->
  <rect x="752" y="490" width="396" height="74" rx="8" fill="#22c55e" fill-opacity="0.1" stroke="#22c55e" stroke-opacity="0.4" stroke-width="1.5"/>
  <text x="950" y="516" font-size="13" fill="#6ee7b7" text-anchor="middle">Full utbytteoversikt for 191 norske aksjer</text>
  <text x="950" y="540" font-size="22" font-weight="800" fill="#86efac" text-anchor="middle">exday.no</text>
  <text x="950" y="556" font-size="11" fill="#4ade80" text-anchor="middle">Gratis · Oppdateres daglig · Oslo Børs</text>

  <!-- FOOTER -->
  <line x1="40" y1="596" x2="1160" y2="596" stroke="#1f2937" stroke-width="1"/>
  <text x="600" y="618" font-size="13" fill="#475569" text-anchor="middle">exday.no  •  Norske utbytteaksjer  •  Data: Oslo Børs / Yahoo Finance  •  Oppdateres daglig på børsdager</text>

</svg>
