<svg xmlns="http://www.w3.org/2000/svg" width="1200" height="630" viewBox="0 0 1200 630" font-family="system-ui, -apple-system, 'Segoe UI', sans-serif">
  <defs>
    <linearGradient id="bg" x1="0%" y1="0%" x2="100%" y2="100%">
      <stop offset="0%" style="stop-color:#0f172a"/>
      <stop offset="55%" style="stop-color:#1e293b"/>
      <stop offset="100%" style="stop-color:#14532d"/>
    </linearGradient>
    <linearGradient id="cardGrad" x1="0%" y1="0%" x2="0%" y2="100%">
      <stop offset="0%" style="stop-color:#1e293b;stop-opacity:1"/>
      <stop offset="100%" style="stop-color:#162032;stop-opacity:1"/>
    </linearGradient>
    <clipPath id="roundCard">
      <rect x="40" y="100" width="700" height="490" rx="16"/>
    </clipPath>
    <clipPath id="roundRight">
      <rect x="760" y="100" width="400" height="490" rx="16"/>
    </clipPath>
    <filter id="glow">
      <feGaussianBlur stdDeviation="3" result="blur"/>
      <feMerge><feMergeNode in="blur"/><feMergeNode in="SourceGraphic"/></feMerge>
    </filter>
  </defs>

  <!-- Background -->
  <rect width="1200" height="630" fill="url(#bg)"/>

  <!-- Subtle grid lines -->
  <line x1="0" y1="210" x2="1200" y2="210" stroke="#ffffff" stroke-opacity="0.03" stroke-width="1"/>
  <line x1="0" y1="420" x2="1200" y2="420" stroke="#ffffff" stroke-opacity="0.03" stroke-width="1"/>
  <line x1="600" y1="0" x2="600" y2="630" stroke="#ffffff" stroke-opacity="0.03" stroke-width="1"/>

  <!-- Left card -->
  <rect x="40" y="100" width="700" height="490" rx="16" fill="url(#cardGrad)" opacity="0.85"/>

  <!-- Green accent bar top -->
  <rect x="40" y="100" width="700" height="4" rx="2" fill="#22c55e"/>

  <!-- Logo / brand -->
  <text x="72" y="152" font-size="18" font-weight="700" fill="#22c55e" letter-spacing="0.5">exday.no</text>
  <text x="72" y="172" font-size="12" fill="#64748b" letter-spacing="1">ARTIKKEL</text>

  <!-- Main headline -->
  <text x="72" y="228" font-size="36" font-weight="800" fill="#f1f5f9" letter-spacing="-0.5">Slik bygger du en</text>
  <text x="72" y="272" font-size="36" font-weight="800" fill="#22c55e" letter-spacing="-0.5">utbytteportefølje</text>
  <text x="72" y="314" font-size="24" font-weight="600" fill="#94a3b8">Sektorvekting og rebalansering</text>

  <!-- Divider -->
  <line x1="72" y1="338" x2="360" y2="338" stroke="#22c55e" stroke-width="2" stroke-opacity="0.4"/>

  <!-- Key points -->
  <circle cx="84" cy="370" r="4" fill="#22c55e"/>
  <text x="100" y="375" font-size="15" fill="#cbd5e1">Hvilke sektorer du bør ha i porteføljen</text>

  <circle cx="84" cy="402" r="4" fill="#22c55e"/>
  <text x="100" y="407" font-size="15" fill="#cbd5e1">Slik setter du målvekter per sektor</text>

  <circle cx="84" cy="434" r="4" fill="#22c55e"/>
  <text x="100" y="439" font-size="15" fill="#cbd5e1">Når og hvordan du rebalanserer</text>

  <circle cx="84" cy="466" r="4" fill="#22c55e"/>
  <text x="100" y="471" font-size="15" fill="#cbd5e1">Rebalanseringsverktøy på exday.no</text>

  <!-- URL -->
  <text x="72" y="548" font-size="13" fill="#475569">exday.no/artikler/utbytteportefolje-sektorvekting/</text>

  <!-- Right card - donut chart -->
  <rect x="760" y="100" width="400" height="490" rx="16" fill="url(#cardGrad)" opacity="0.75"/>

  <!-- Chart title -->
  <text x="960" y="152" font-size="13" font-weight="600" fill="#64748b" text-anchor="middle" letter-spacing="1">EKSEMPEL PORTEFØLJE</text>

  <!--
    Donut chart centered at (960, 330), outer r=140, inner r=85
    Sectors (approximate degrees):
    Energi        20% → 72°   start=0
    Finans        18% → 64.8° start=72
    Havbruk       15% → 54°   start=136.8
    Eiendom       15% → 54°   start=190.8
    Industri      12% → 43.2° start=244.8
    Shipping      10% → 36°   start=288
    Andre         10% → 36°   start=324
  -->

  <!-- Helper: arc path for donut slice -->
  <!-- Energi 0°→72° -->
  <path d="M 960 190 A 140 140 0 0 1 1093 265 L 1044 299 A 85 85 0 0 0 960 245 Z"
        fill="#22c55e" opacity="0.9"/>

  <!-- Finans 72°→136.8° -->
  <path d="M 1093 265 A 140 140 0 0 1 1034 453 L 997 412 A 85 85 0 0 0 1044 299 Z"
        fill="#3b82f6" opacity="0.9"/>

  <!-- Havbruk 136.8°→190.8° -->
  <path d="M 1034 453 A 140 140 0 0 1 851 418 L 883 374 A 85 85 0 0 0 997 412 Z"
        fill="#06b6d4" opacity="0.9"/>

  <!-- Eiendom 190.8°→244.8° -->
  <path d="M 851 418 A 140 140 0 0 1 832 222 L 882 255 A 85 85 0 0 0 883 374 Z"
        fill="#f59e0b" opacity="0.9"/>

  <!-- Industri 244.8°→288° -->
  <path d="M 832 222 A 140 140 0 0 1 918 194 L 924 246 A 85 85 0 0 0 882 255 Z"
        fill="#a855f7" opacity="0.9"/>

  <!-- Shipping 288°→324° -->
  <path d="M 918 194 A 140 140 0 0 1 960 190 L 960 245 A 85 85 0 0 0 924 246 Z"
        fill="#f97316" opacity="0.85"/>

  <!-- Donut hole -->
  <circle cx="960" cy="330" r="84" fill="#1a2535"/>

  <!-- Center text -->
  <text x="960" y="322" font-size="28" font-weight="800" fill="#f1f5f9" text-anchor="middle">191</text>
  <text x="960" y="344" font-size="11" fill="#64748b" text-anchor="middle">AKSJER</text>

  <!-- Legend -->
  <rect x="786" y="486" width="10" height="10" rx="2" fill="#22c55e"/>
  <text x="802" y="496" font-size="12" fill="#94a3b8">Energi 20%</text>
  <rect x="876" y="486" width="10" height="10" rx="2" fill="#3b82f6"/>
  <text x="892" y="496" font-size="12" fill="#94a3b8">Finans 18%</text>
  <rect x="966" y="486" width="10" height="10" rx="2" fill="#06b6d4"/>
  <text x="982" y="496" font-size="12" fill="#94a3b8">Havbruk 15%</text>
  <rect x="786" y="510" width="10" height="10" rx="2" fill="#f59e0b"/>
  <text x="802" y="520" font-size="12" fill="#94a3b8">Eiendom 15%</text>
  <rect x="876" y="510" width="10" height="10" rx="2" fill="#a855f7"/>
  <text x="892" y="520" font-size="12" fill="#94a3b8">Industri 12%</text>
  <rect x="966" y="510" width="10" height="10" rx="2" fill="#f97316"/>
  <text x="982" y="520" font-size="12" fill="#94a3b8">Shipping 10%</text>

  <!-- Bottom tagline -->
  <text x="600" y="612" font-size="13" fill="#334155" text-anchor="middle">Gratis verktøy for norske utbytteinvestorer · exday.no</text>
</svg>
